<svg xmlns="http://www.w3.org/2000/svg" xmlns:svg="http://www.w3.org/2000/svg" id="svg2433" width="680" height="680" version="1.1" viewBox="0 0 17 17"><g id="layer1" transform="translate(-1.5,-1)" style="fill:#333"><path id="path2430" style="fill:#333;fill-opacity:1;stroke:none;stroke-width:0" d="M 4,1 V 3 H 2 V 4 H 4 V 5 H 2 V 6 H 4 V 7 H 2 V 8 H 4 V 9 H 2 v 1 h 2 v 1 H 2 v 1 h 2 v 1 H 2 v 1 h 2 v 1 H 2 v 1 h 2 v 1 1 h 1 10 1 V 17 16.5 16 h 2 v -1 h -2 v -1 h 2 v -1 h -2 v -1 h 2 v -1 h -2 v -1 h 2 V 9 H 16 V 8 h 2 V 7 H 16 V 6 h 2 V 5 H 16 V 4 h 2 V 3 H 16 V 1 h -2.621387 -1 A 2.3786125,2.3786125 0 0 1 10,3.3786133 2.3786125,2.3786125 0 0 1 7.6213867,1 h -1 z M 5,2 H 6.7729004 A 3.3786073,3.3786073 0 0 0 10,4.3786133 3.3786073,3.3786073 0 0 0 13.2271,2 H 15 V 17 H 5 Z"/></g><text xml:space="preserve" style="font-style:normal;font-variant:normal;font-weight:700;font-stretch:normal;font-size:13.1116px;line-height:1.25;font-family:Arvo;-inkscape-font-specification:'Arvo Bold';fill:#333;fill-opacity:1;stroke:none;stroke-width:.327789" id="text1453" x="6.038" y="14.705"><tspan id="tspan1451" style="font-style:normal;font-variant:normal;font-weight:700;font-stretch:normal;font-family:Arvo;-inkscape-font-specification:'Arvo Bold';fill:#333;fill-opacity:1;stroke-width:.327789" x="6.038" y="14.705">i</tspan></text></svg>